<mxfile host="app.diagrams.net" modified="2022-05-10T06:17:13.467Z" agent="5.0 (Windows NT 10.0; Win64; x64) AppleWebKit/537.36 (KHTML, like Gecko) Chrome/101.0.4951.54 Safari/537.36" etag="Qjae3lAxc0F8z5w_jRN4" version="18.0.2" type="github">
  <diagram id="CS5cJx92sJc7KqQ-6qXz" name="Page-1">
    <mxGraphModel dx="1278" dy="1673" grid="1" gridSize="10" guides="1" tooltips="1" connect="1" arrows="1" fold="1" page="1" pageScale="1" pageWidth="850" pageHeight="1100" math="0" shadow="0">
      <root>
        <mxCell id="0" />
        <mxCell id="1" parent="0" />
        <mxCell id="mL2gaV0ALQwlTFhh_mKT-1" value="Class" style="swimlane;fontStyle=1;align=center;verticalAlign=top;childLayout=stackLayout;horizontal=1;startSize=26;horizontalStack=0;resizeParent=1;resizeParentMax=0;resizeLast=0;collapsible=1;marginBottom=0;" vertex="1" parent="1">
          <mxGeometry x="40" y="40" width="160" height="114" as="geometry" />
        </mxCell>
        <mxCell id="mL2gaV0ALQwlTFhh_mKT-2" value="+ Departmentid&#xa;+ Section_No&#xa;+ Group_id" style="text;strokeColor=none;fillColor=none;align=left;verticalAlign=top;spacingLeft=4;spacingRight=4;overflow=hidden;rotatable=0;points=[[0,0.5],[1,0.5]];portConstraint=eastwest;" vertex="1" parent="mL2gaV0ALQwlTFhh_mKT-1">
          <mxGeometry y="26" width="160" height="54" as="geometry" />
        </mxCell>
        <mxCell id="mL2gaV0ALQwlTFhh_mKT-3" value="" style="line;strokeWidth=1;fillColor=none;align=left;verticalAlign=middle;spacingTop=-1;spacingLeft=3;spacingRight=3;rotatable=0;labelPosition=right;points=[];portConstraint=eastwest;" vertex="1" parent="mL2gaV0ALQwlTFhh_mKT-1">
          <mxGeometry y="80" width="160" height="8" as="geometry" />
        </mxCell>
        <mxCell id="mL2gaV0ALQwlTFhh_mKT-4" value="+ ClassRoomDetails" style="text;strokeColor=none;fillColor=none;align=left;verticalAlign=top;spacingLeft=4;spacingRight=4;overflow=hidden;rotatable=0;points=[[0,0.5],[1,0.5]];portConstraint=eastwest;" vertex="1" parent="mL2gaV0ALQwlTFhh_mKT-1">
          <mxGeometry y="88" width="160" height="26" as="geometry" />
        </mxCell>
        <mxCell id="mL2gaV0ALQwlTFhh_mKT-5" value="Student" style="swimlane;fontStyle=1;align=center;verticalAlign=top;childLayout=stackLayout;horizontal=1;startSize=26;horizontalStack=0;resizeParent=1;resizeParentMax=0;resizeLast=0;collapsible=1;marginBottom=0;" vertex="1" parent="1">
          <mxGeometry x="320" y="60" width="160" height="180" as="geometry" />
        </mxCell>
        <mxCell id="mL2gaV0ALQwlTFhh_mKT-6" value="+ Student_id&#xa;+ Name&#xa;+ Gender&#xa;+ DOB&#xa;+ Year&#xa;+ Class_ID" style="text;strokeColor=none;fillColor=none;align=left;verticalAlign=top;spacingLeft=4;spacingRight=4;overflow=hidden;rotatable=0;points=[[0,0.5],[1,0.5]];portConstraint=eastwest;" vertex="1" parent="mL2gaV0ALQwlTFhh_mKT-5">
          <mxGeometry y="26" width="160" height="104" as="geometry" />
        </mxCell>
        <mxCell id="mL2gaV0ALQwlTFhh_mKT-7" value="" style="line;strokeWidth=1;fillColor=none;align=left;verticalAlign=middle;spacingTop=-1;spacingLeft=3;spacingRight=3;rotatable=0;labelPosition=right;points=[];portConstraint=eastwest;" vertex="1" parent="mL2gaV0ALQwlTFhh_mKT-5">
          <mxGeometry y="130" width="160" height="8" as="geometry" />
        </mxCell>
        <mxCell id="mL2gaV0ALQwlTFhh_mKT-8" value="Studentdetails()&#xa;PayFees()&#xa;" style="text;strokeColor=none;fillColor=none;align=left;verticalAlign=top;spacingLeft=4;spacingRight=4;overflow=hidden;rotatable=0;points=[[0,0.5],[1,0.5]];portConstraint=eastwest;" vertex="1" parent="mL2gaV0ALQwlTFhh_mKT-5">
          <mxGeometry y="138" width="160" height="42" as="geometry" />
        </mxCell>
        <mxCell id="mL2gaV0ALQwlTFhh_mKT-31" style="edgeStyle=orthogonalEdgeStyle;rounded=0;orthogonalLoop=1;jettySize=auto;html=1;" edge="1" parent="1" source="mL2gaV0ALQwlTFhh_mKT-9" target="mL2gaV0ALQwlTFhh_mKT-22">
          <mxGeometry relative="1" as="geometry" />
        </mxCell>
        <mxCell id="mL2gaV0ALQwlTFhh_mKT-9" value="Department" style="swimlane;fontStyle=1;align=center;verticalAlign=top;childLayout=stackLayout;horizontal=1;startSize=26;horizontalStack=0;resizeParent=1;resizeParentMax=0;resizeLast=0;collapsible=1;marginBottom=0;" vertex="1" parent="1">
          <mxGeometry x="550" y="17" width="160" height="160" as="geometry" />
        </mxCell>
        <mxCell id="mL2gaV0ALQwlTFhh_mKT-10" value="+ Department_id&#xa;+ Department_Name&#xa;+ HOD&#xa;+ Total_staff&#xa;+ total_students" style="text;strokeColor=none;fillColor=none;align=left;verticalAlign=top;spacingLeft=4;spacingRight=4;overflow=hidden;rotatable=0;points=[[0,0.5],[1,0.5]];portConstraint=eastwest;" vertex="1" parent="mL2gaV0ALQwlTFhh_mKT-9">
          <mxGeometry y="26" width="160" height="84" as="geometry" />
        </mxCell>
        <mxCell id="mL2gaV0ALQwlTFhh_mKT-11" value="" style="line;strokeWidth=1;fillColor=none;align=left;verticalAlign=middle;spacingTop=-1;spacingLeft=3;spacingRight=3;rotatable=0;labelPosition=right;points=[];portConstraint=eastwest;" vertex="1" parent="mL2gaV0ALQwlTFhh_mKT-9">
          <mxGeometry y="110" width="160" height="8" as="geometry" />
        </mxCell>
        <mxCell id="mL2gaV0ALQwlTFhh_mKT-12" value="Departmentdetails()&#xa;Showevents()" style="text;strokeColor=none;fillColor=none;align=left;verticalAlign=top;spacingLeft=4;spacingRight=4;overflow=hidden;rotatable=0;points=[[0,0.5],[1,0.5]];portConstraint=eastwest;" vertex="1" parent="mL2gaV0ALQwlTFhh_mKT-9">
          <mxGeometry y="118" width="160" height="42" as="geometry" />
        </mxCell>
        <mxCell id="mL2gaV0ALQwlTFhh_mKT-35" style="edgeStyle=orthogonalEdgeStyle;rounded=0;orthogonalLoop=1;jettySize=auto;html=1;exitX=1;exitY=0.5;exitDx=0;exitDy=0;entryX=0.383;entryY=0.995;entryDx=0;entryDy=0;entryPerimeter=0;" edge="1" parent="1" source="mL2gaV0ALQwlTFhh_mKT-13" target="mL2gaV0ALQwlTFhh_mKT-8">
          <mxGeometry relative="1" as="geometry" />
        </mxCell>
        <mxCell id="mL2gaV0ALQwlTFhh_mKT-13" value="&lt;p style=&quot;margin:0px;margin-top:4px;text-align:center;text-decoration:underline;&quot;&gt;&lt;b&gt;UG&lt;/b&gt;&lt;/p&gt;&lt;hr&gt;&lt;p style=&quot;margin:0px;margin-left:8px;&quot;&gt;&lt;br&gt;&lt;/p&gt;" style="verticalAlign=top;align=left;overflow=fill;fontSize=12;fontFamily=Helvetica;html=1;" vertex="1" parent="1">
          <mxGeometry x="300" y="260" width="60" height="40" as="geometry" />
        </mxCell>
        <mxCell id="mL2gaV0ALQwlTFhh_mKT-41" style="edgeStyle=orthogonalEdgeStyle;rounded=0;orthogonalLoop=1;jettySize=auto;html=1;exitX=0;exitY=0.5;exitDx=0;exitDy=0;entryX=0.498;entryY=1.014;entryDx=0;entryDy=0;entryPerimeter=0;fontSize=18;" edge="1" parent="1" source="mL2gaV0ALQwlTFhh_mKT-14" target="mL2gaV0ALQwlTFhh_mKT-8">
          <mxGeometry relative="1" as="geometry" />
        </mxCell>
        <mxCell id="mL2gaV0ALQwlTFhh_mKT-14" value="&lt;p style=&quot;margin:0px;margin-top:4px;text-align:center;text-decoration:underline;&quot;&gt;&lt;b&gt;PG&lt;/b&gt;&lt;/p&gt;&lt;hr&gt;&lt;p style=&quot;margin:0px;margin-left:8px;&quot;&gt;&lt;br&gt;&lt;/p&gt;" style="verticalAlign=top;align=left;overflow=fill;fontSize=12;fontFamily=Helvetica;html=1;" vertex="1" parent="1">
          <mxGeometry x="420" y="260" width="60" height="40" as="geometry" />
        </mxCell>
        <mxCell id="mL2gaV0ALQwlTFhh_mKT-15" value="Staff" style="swimlane;fontStyle=1;align=center;verticalAlign=top;childLayout=stackLayout;horizontal=1;startSize=26;horizontalStack=0;resizeParent=1;resizeParentMax=0;resizeLast=0;collapsible=1;marginBottom=0;" vertex="1" parent="1">
          <mxGeometry x="570" y="250" width="160" height="130" as="geometry" />
        </mxCell>
        <mxCell id="mL2gaV0ALQwlTFhh_mKT-16" value="+ Staff_id&#xa;+ Staff_Name&#xa;+ Derpartment_id&#xa;+ Salary" style="text;strokeColor=none;fillColor=none;align=left;verticalAlign=top;spacingLeft=4;spacingRight=4;overflow=hidden;rotatable=0;points=[[0,0.5],[1,0.5]];portConstraint=eastwest;" vertex="1" parent="mL2gaV0ALQwlTFhh_mKT-15">
          <mxGeometry y="26" width="160" height="64" as="geometry" />
        </mxCell>
        <mxCell id="mL2gaV0ALQwlTFhh_mKT-17" value="" style="line;strokeWidth=1;fillColor=none;align=left;verticalAlign=middle;spacingTop=-1;spacingLeft=3;spacingRight=3;rotatable=0;labelPosition=right;points=[];portConstraint=eastwest;" vertex="1" parent="mL2gaV0ALQwlTFhh_mKT-15">
          <mxGeometry y="90" width="160" height="8" as="geometry" />
        </mxCell>
        <mxCell id="mL2gaV0ALQwlTFhh_mKT-18" value="StaffDetails()" style="text;strokeColor=none;fillColor=none;align=left;verticalAlign=top;spacingLeft=4;spacingRight=4;overflow=hidden;rotatable=0;points=[[0,0.5],[1,0.5]];portConstraint=eastwest;" vertex="1" parent="mL2gaV0ALQwlTFhh_mKT-15">
          <mxGeometry y="98" width="160" height="32" as="geometry" />
        </mxCell>
        <mxCell id="mL2gaV0ALQwlTFhh_mKT-37" style="edgeStyle=orthogonalEdgeStyle;rounded=0;orthogonalLoop=1;jettySize=auto;html=1;exitX=1;exitY=0.5;exitDx=0;exitDy=0;entryX=0.41;entryY=1.006;entryDx=0;entryDy=0;entryPerimeter=0;" edge="1" parent="1" source="mL2gaV0ALQwlTFhh_mKT-19" target="mL2gaV0ALQwlTFhh_mKT-18">
          <mxGeometry relative="1" as="geometry" />
        </mxCell>
        <mxCell id="mL2gaV0ALQwlTFhh_mKT-19" value="&lt;p style=&quot;margin:0px;margin-top:4px;text-align:center;text-decoration:underline;&quot;&gt;&lt;b&gt;Teaching Staff&lt;/b&gt;&lt;/p&gt;&lt;hr&gt;&lt;p style=&quot;margin:0px;margin-left:8px;&quot;&gt;&lt;br&gt;&lt;/p&gt;" style="verticalAlign=top;align=left;overflow=fill;fontSize=12;fontFamily=Helvetica;html=1;" vertex="1" parent="1">
          <mxGeometry x="480" y="400" width="110" height="40" as="geometry" />
        </mxCell>
        <mxCell id="mL2gaV0ALQwlTFhh_mKT-38" style="edgeStyle=orthogonalEdgeStyle;rounded=0;orthogonalLoop=1;jettySize=auto;html=1;" edge="1" parent="1" source="mL2gaV0ALQwlTFhh_mKT-20">
          <mxGeometry relative="1" as="geometry">
            <mxPoint x="650" y="380" as="targetPoint" />
          </mxGeometry>
        </mxCell>
        <mxCell id="mL2gaV0ALQwlTFhh_mKT-20" value="&lt;p style=&quot;margin:0px;margin-top:4px;text-align:center;text-decoration:underline;&quot;&gt;&lt;b&gt;Non-teaching Staff&lt;/b&gt;&lt;/p&gt;&lt;hr&gt;&lt;p style=&quot;margin:0px;margin-left:8px;&quot;&gt;&lt;br&gt;&lt;/p&gt;" style="verticalAlign=top;align=left;overflow=fill;fontSize=12;fontFamily=Helvetica;html=1;" vertex="1" parent="1">
          <mxGeometry x="710" y="400" width="110" height="40" as="geometry" />
        </mxCell>
        <mxCell id="mL2gaV0ALQwlTFhh_mKT-21" value="University" style="swimlane;fontStyle=1;align=center;verticalAlign=top;childLayout=stackLayout;horizontal=1;startSize=26;horizontalStack=0;resizeParent=1;resizeParentMax=0;resizeLast=0;collapsible=1;marginBottom=0;" vertex="1" parent="1">
          <mxGeometry x="320" y="-140" width="160" height="180" as="geometry" />
        </mxCell>
        <mxCell id="mL2gaV0ALQwlTFhh_mKT-22" value="+ UniversityName&#xa;+ Departments&#xa;+ Totalteachers&#xa;+ Totalrevenue&#xa;+ Location&#xa;+ Contacts&#xa;+ Administration" style="text;strokeColor=none;fillColor=none;align=left;verticalAlign=top;spacingLeft=4;spacingRight=4;overflow=hidden;rotatable=0;points=[[0,0.5],[1,0.5]];portConstraint=eastwest;" vertex="1" parent="mL2gaV0ALQwlTFhh_mKT-21">
          <mxGeometry y="26" width="160" height="104" as="geometry" />
        </mxCell>
        <mxCell id="mL2gaV0ALQwlTFhh_mKT-23" value="" style="line;strokeWidth=1;fillColor=none;align=left;verticalAlign=middle;spacingTop=-1;spacingLeft=3;spacingRight=3;rotatable=0;labelPosition=right;points=[];portConstraint=eastwest;" vertex="1" parent="mL2gaV0ALQwlTFhh_mKT-21">
          <mxGeometry y="130" width="160" height="8" as="geometry" />
        </mxCell>
        <mxCell id="mL2gaV0ALQwlTFhh_mKT-24" value="Studentdetails()&#xa;PayFees()&#xa;" style="text;strokeColor=none;fillColor=none;align=left;verticalAlign=top;spacingLeft=4;spacingRight=4;overflow=hidden;rotatable=0;points=[[0,0.5],[1,0.5]];portConstraint=eastwest;" vertex="1" parent="mL2gaV0ALQwlTFhh_mKT-21">
          <mxGeometry y="138" width="160" height="42" as="geometry" />
        </mxCell>
        <mxCell id="mL2gaV0ALQwlTFhh_mKT-25" value="Courses" style="swimlane;fontStyle=1;align=center;verticalAlign=top;childLayout=stackLayout;horizontal=1;startSize=26;horizontalStack=0;resizeParent=1;resizeParentMax=0;resizeLast=0;collapsible=1;marginBottom=0;" vertex="1" parent="1">
          <mxGeometry x="80" y="190" width="160" height="180" as="geometry" />
        </mxCell>
        <mxCell id="mL2gaV0ALQwlTFhh_mKT-26" value="+ Course_id&#xa;+ Name&#xa;+ Department&#xa;+ Department_id&#xa;+ Duration&#xa;+ Class_ID" style="text;strokeColor=none;fillColor=none;align=left;verticalAlign=top;spacingLeft=4;spacingRight=4;overflow=hidden;rotatable=0;points=[[0,0.5],[1,0.5]];portConstraint=eastwest;" vertex="1" parent="mL2gaV0ALQwlTFhh_mKT-25">
          <mxGeometry y="26" width="160" height="104" as="geometry" />
        </mxCell>
        <mxCell id="mL2gaV0ALQwlTFhh_mKT-27" value="" style="line;strokeWidth=1;fillColor=none;align=left;verticalAlign=middle;spacingTop=-1;spacingLeft=3;spacingRight=3;rotatable=0;labelPosition=right;points=[];portConstraint=eastwest;" vertex="1" parent="mL2gaV0ALQwlTFhh_mKT-25">
          <mxGeometry y="130" width="160" height="8" as="geometry" />
        </mxCell>
        <mxCell id="mL2gaV0ALQwlTFhh_mKT-28" value="AddCourse()&#xa;DeleteCourse()" style="text;strokeColor=none;fillColor=none;align=left;verticalAlign=top;spacingLeft=4;spacingRight=4;overflow=hidden;rotatable=0;points=[[0,0.5],[1,0.5]];portConstraint=eastwest;" vertex="1" parent="mL2gaV0ALQwlTFhh_mKT-25">
          <mxGeometry y="138" width="160" height="42" as="geometry" />
        </mxCell>
        <mxCell id="mL2gaV0ALQwlTFhh_mKT-29" style="edgeStyle=orthogonalEdgeStyle;rounded=0;orthogonalLoop=1;jettySize=auto;html=1;exitX=1;exitY=0.5;exitDx=0;exitDy=0;" edge="1" parent="1" source="mL2gaV0ALQwlTFhh_mKT-2" target="mL2gaV0ALQwlTFhh_mKT-22">
          <mxGeometry relative="1" as="geometry" />
        </mxCell>
        <mxCell id="mL2gaV0ALQwlTFhh_mKT-30" style="edgeStyle=orthogonalEdgeStyle;rounded=0;orthogonalLoop=1;jettySize=auto;html=1;entryX=1.027;entryY=0.759;entryDx=0;entryDy=0;entryPerimeter=0;" edge="1" parent="1" source="mL2gaV0ALQwlTFhh_mKT-6" target="mL2gaV0ALQwlTFhh_mKT-2">
          <mxGeometry relative="1" as="geometry" />
        </mxCell>
        <mxCell id="mL2gaV0ALQwlTFhh_mKT-32" style="edgeStyle=orthogonalEdgeStyle;rounded=0;orthogonalLoop=1;jettySize=auto;html=1;entryX=1.008;entryY=0.825;entryDx=0;entryDy=0;entryPerimeter=0;" edge="1" parent="1" source="mL2gaV0ALQwlTFhh_mKT-16" target="mL2gaV0ALQwlTFhh_mKT-22">
          <mxGeometry relative="1" as="geometry" />
        </mxCell>
        <mxCell id="mL2gaV0ALQwlTFhh_mKT-34" style="edgeStyle=orthogonalEdgeStyle;rounded=0;orthogonalLoop=1;jettySize=auto;html=1;entryX=1.01;entryY=0.286;entryDx=0;entryDy=0;entryPerimeter=0;" edge="1" parent="1" source="mL2gaV0ALQwlTFhh_mKT-16" target="mL2gaV0ALQwlTFhh_mKT-10">
          <mxGeometry relative="1" as="geometry" />
        </mxCell>
        <mxCell id="mL2gaV0ALQwlTFhh_mKT-39" style="edgeStyle=orthogonalEdgeStyle;rounded=0;orthogonalLoop=1;jettySize=auto;html=1;entryX=-0.002;entryY=0.181;entryDx=0;entryDy=0;entryPerimeter=0;" edge="1" parent="1" source="mL2gaV0ALQwlTFhh_mKT-26" target="mL2gaV0ALQwlTFhh_mKT-2">
          <mxGeometry relative="1" as="geometry" />
        </mxCell>
        <mxCell id="mL2gaV0ALQwlTFhh_mKT-40" value="&lt;font style=&quot;font-size: 18px;&quot;&gt;Aditya Sharma&lt;br&gt;UID: 20BCS9872&lt;/font&gt;" style="text;html=1;strokeColor=none;fillColor=none;align=center;verticalAlign=middle;whiteSpace=wrap;rounded=0;" vertex="1" parent="1">
          <mxGeometry x="20" y="-97" width="140" height="77" as="geometry" />
        </mxCell>
      </root>
    </mxGraphModel>
  </diagram>
</mxfile>
